<svg xmlns="http://www.w3.org/2000/svg" id="Calque_1" viewBox="0 0 469.624 154.179"><g><path d="M81.075,143.076c-.029,0-.057,0-.086,0-2.196-.013-4.262-.899-5.815-2.494-1.584-1.627-2.429-3.805-2.38-6.132,0-3.97,2.972-7.534,6.914-8.281.398-.054.872-.081,1.358-.081,2.498,0,4.779.92,6.104,2.461.554.647.337,1.438-.148,1.855-.472.405-1.234.486-1.776-.144-1.187-1.378-3.277-2.02-5.084-1.563-2.29.541-4.747,2.597-4.747,5.836.045,3.191,2.615,5.95,5.612,6.02,1.737.017,3.39-.715,4.362-1.934v-2.702h-4.003c-.481,0-.773-.204-.933-.376-.203-.218-.314-.511-.314-.827,0-.616.437-1.271,1.247-1.271h5.215c.877,0,1.36.474,1.36,1.335v4.108c0,.462-.126.829-.373,1.09-1.462,1.918-3.949,3.1-6.514,3.1Z" fill="#192847"></path><path d="M104.119,136.322l-3.177-6.373-3.197,6.373-1.167,2.4-1.874,3.656c-.229.47-.664.669-1.103.669-.222,0-.445-.051-.643-.144-.654-.306-.925-.982-.643-1.608l7.438-14.655c.196-.426.655-.7,1.191-.7.502,0,.925.252,1.162.691l7.403,14.559c.233.395.248.822.041,1.174-.241.408-.759.669-1.304.647-.505-.02-.931-.287-1.14-.715l-1.798-3.574-1.188-2.4Z" fill="#192847"></path><path d="M125.643,142.854h-10.086c-.864,0-1.36-.487-1.36-1.335v-14.121c0-.848.672-1.292,1.335-1.292s1.335.444,1.335,1.292v12.982h8.776c.897,0,1.366.622,1.366,1.237s-.469,1.237-1.366,1.237Z" fill="#192847"></path><path d="M146.22,143.076c-.657,0-1.323-.45-1.323-1.311v-9.739l-4.235,6.622c-.248.45-.706.731-1.216.731-.006,0-.013,0-.019,0-.5-.007-.943-.285-1.189-.746l-4.226-6.587v9.718c0,.861-.665,1.311-1.323,1.311-.339,0-.657-.116-.898-.327-.275-.241-.425-.59-.425-.984v-14.17c0-.675.378-1.208.964-1.36.582-.151,1.186.135,1.506.711l5.629,8.765,5.596-8.788c.369-.577.982-.84,1.561-.671.559.163.92.691.92,1.343v14.17c0,.861-.666,1.311-1.323,1.311Z" fill="#192847"></path><path d="M165.912,142.854h-10.357c-.887,0-1.557-.648-1.557-1.507v-13.506c0-.845.669-1.483,1.557-1.483h10.381c.36,0,.679.135.898.38.193.216.299.504.299.812,0,.598-.428,1.233-1.222,1.233h-9.292v4.685h8.825c.768,0,1.182.632,1.182,1.227,0,.306-.103.594-.291.811-.217.25-.533.387-.891.387h-8.825v4.488h9.292c.787,0,1.257.65,1.257,1.277,0,.316-.113.609-.318.825-.161.169-.454.371-.938.371Z" fill="#192847"></path><path d="M180.106,143.125c-4.943,0-8.396-3.614-8.396-8.789,0-4.188,2.828-7.557,6.878-8.194.872-.118,1.708-.118,2.722-.002,4.117.641,7.093,4.087,7.093,8.196,0,5.011-3.567,8.789-8.297,8.789ZM179.956,128.562c-.337,0-.67.023-.995.069-2.807.441-4.555,2.655-4.555,5.778,0,3.631,2.344,6.168,5.7,6.168,3.313,0,5.626-2.537,5.626-6.168,0-2.947-1.957-5.324-4.76-5.78-.341-.045-.681-.068-1.017-.068Z" fill="#192847"></path><path d="M195.179,143.079c-.672,0-1.353-.46-1.353-1.339v-14.096c0-.706.376-1.26.982-1.446.654-.201,1.373.077,1.788.691l8.6,11.503-.151-2.282v-8.737c0-.695.591-1.219,1.375-1.219.779,0,1.344.513,1.344,1.219v14.121c0,.685-.412,1.224-1.077,1.408-.741.206-1.542-.079-1.915-.677l-8.342-11.175.115,1.981v8.708c0,.87-.704,1.339-1.366,1.339Z" fill="#192847"></path></g><g><path d="M26.599,140.371c-.985,1.01-2.168,1.527-3.572,1.552h-9.976c-.813,0-1.478-.665-1.478-1.478v-14.78c0-.813.665-1.478,1.478-1.478h9.976c1.404.025,2.587.567,3.572,1.577s1.478,2.192,1.478,3.597c0,1.453-.517,2.685-1.552,3.695,1.035,1.01,1.552,2.242,1.552,3.695,0,1.404-.493,2.611-1.478,3.621ZM14.529,127.143v4.434h8.449c1.182-.074,2.143-1.01,2.143-2.217,0-1.256-.961-2.217-2.217-2.217h-8.375ZM14.529,134.533v4.434h8.375c1.256,0,2.217-.961,2.217-2.217,0-1.182-.961-2.143-2.143-2.217h-8.449Z" fill="#192847"></path><path d="M43.597,133.671l-6.971-6.947c-.271-.271-.419-.641-.419-1.059,0-.813.665-1.478,1.478-1.478.37,0,.714.148,1.035.419l6.355,6.355,6.331-6.331c.936-.936,2.537-.246,2.537,1.035,0,.369-.148.714-.419,1.034l-6.971,6.971v6.774c0,.813-.665,1.478-1.478,1.478s-1.478-.665-1.478-1.478v-6.774Z" fill="#192847"></path></g><path id="Trac&#xE9;_1087" d="M390.46,80.339v-40.766c.394-1.435,1.224-2.712,2.376-3.653,2.409-1.577,5.639-.904,7.217,1.505.49.747.779,1.608.84,2.499l.036,55.801c-.214,2.887-2.728,5.055-5.615,4.841-.814-.06-1.604-.31-2.305-.729-12.546-14.026-23.198-29.884-35.451-44.157-.197-.229,0-.596-.727-.403v41.083c-.379,1.101-.992,2.107-1.796,2.949-2.312,1.84-5.678,1.458-7.518-.854-.834-1.047-1.244-2.368-1.151-3.703.983-17.326-1.33-36.136,0-53.288.386-4.987,2.84-7.913,8.041-5.826l36.054,44.701Z" fill="#192847"></path><path id="Trac&#xE9;_1088" d="M26.984,88.038c-1.681,1.678-3.843,7.667-5.658,10.046-1.503,2.415-4.679,3.154-7.094,1.651-2.218-1.38-3.051-4.202-1.939-6.566l31.477-55.765c4.004-4.548,7.159-2.523,9.829,1.792,10.881,17.562,20.055,36.896,30.645,54.694.801,2.762-.789,5.649-3.55,6.45-1.964.569-4.079-.063-5.408-1.617l-7.303-12.647c-5.593,3.008-12.132,3.737-18.25,2.035-6.16-1.196-13.27-4.613-19.436-1.995-1.139.579-2.246,1.219-3.316,1.917M48.465,50.831l-13.633,24.111c9.374-.983,19.403,6.91,28.2,2.071l-14.567-26.182Z" fill="#192847"></path><path id="Trac&#xE9;_1089" d="M428.215,62.888h23.001c.968.332,1.877.814,2.697,1.429,2.035,1.993,2.069,5.258.077,7.293-.331.339-.708.63-1.119.866-.737.363-1.504.659-2.293.885h-22.365v16.815h29.03c.623.183,1.225.431,1.796.74,2.463,1.449,3.284,4.62,1.836,7.082-.806,1.37-2.197,2.294-3.772,2.504-10.78-.436-22.86,1.065-33.499.154-2.265.073-4.344-1.246-5.243-3.326-.603-19.439-.302-39.081-.154-58.557.68-1.805,2.261-3.118,4.161-3.453h34.842c2.854.485,4.775,3.192,4.29,6.046-.192,1.129-.748,2.164-1.584,2.947-.633.459-1.319.839-2.045,1.13h-29.186l-.475.475.007,16.969Z" fill="#192847"></path><path id="Trac&#xE9;_1090" d="M295.837,35.048c1.653-.288,3.35.167,4.636,1.245l32.109,56.404c1.405,2.503.515,5.67-1.988,7.075-2.383,1.338-5.395.601-6.891-1.685l-26.667-47.243-27.443,48.052c-1.974,2.096-5.273,2.194-7.369.22-1.867-1.759-2.177-4.615-.731-6.733l32.057-56.139c.666-.565,1.449-.974,2.293-1.196" fill="#192847"></path><path id="Trac&#xE9;_1091" d="M209.866,35.052c1.889-.389,3.84.267,5.111,1.717l18.925,33.092,18.869-33.151c1.901-2.162,5.195-2.373,7.357-.472.595.523,1.063,1.175,1.368,1.907.924,2.362.079,3.647-.94,5.714-6.245,12.68-14.885,24.999-21.343,37.679-.567,4.558.508,10.049-.105,14.488-.365,2.814-2.942,4.799-5.756,4.433-2.181-.283-3.94-1.923-4.375-4.08-.528-4.397.531-9.649-.141-14.135l-22.608-40.192c-1.098-2.601.12-5.599,2.721-6.697.3-.127.611-.224.93-.292" fill="#192847"></path><path id="Trac&#xE9;_1092" d="M205.669,90.175c2.85.577,4.693,3.355,4.117,6.205-.449,2.22-2.268,3.904-4.516,4.181-12.349-.655-26.126,1.15-38.315.095-2.355.061-4.477-1.413-5.242-3.64l-.269-57.731c.483-2.84,3.176-4.751,6.017-4.268,1.283.218,2.439.909,3.239,1.935.342.528.633,1.087.868,1.671v51.077l.475.475h33.626Z" fill="#192847"></path><path id="Trac&#xE9;_1093" d="M108.113,90.171h34.105c1.381.496,2.588,1.381,3.476,2.549,1.418,2.549.5,5.765-2.049,7.183-.657.365-1.383.586-2.132.648-12.228-.747-26.28,1.284-38.302.079-2.791.054-5.117-2.126-5.242-4.915l.033-56.778c.638-2.791,3.418-4.535,6.209-3.897.601.137,1.172.381,1.688.719,1.044.805,1.823,1.906,2.235,3.159l-.02,51.253Z" fill="#192847"></path><path id="Trac&#xE9;_1094" d="M275.621,24.266c-2.673.004-4.843-2.159-4.847-4.832-.002-1.651.836-3.188,2.225-4.08,10.439-6.697,19.541-4.305,26.867-2.382,6.985,1.838,11.176,2.703,16.087-.809,2.227-1.478,5.23-.87,6.708,1.357,1.403,2.115.933,4.955-1.076,6.506-3.729,2.763-8.252,4.245-12.893,4.223h-.121c-3.789-.162-7.541-.809-11.166-1.923-6.602-1.737-12.306-3.234-19.167,1.166-.782.503-1.692.769-2.621.767" fill="#f7a942"></path></svg>